PathFileType	4	(X/Y/Z)	../Python\walking\Walking11\task.trc
DataRate	CameraRate	NumFrames	NumMarkers	Units	OrigDataRate	OrigDataStartFrame	OrigNumFrames
200.000000	200.000000	4	30	mm	200.000000	64	512
Frame#	Time	CLAV			STRN			RASI			LASI			RTH1			RTH2			RTH3			RTB1			RTB2			RTB3			RD5M			RTOE			LTH1			LTH2			LTH3			LTB1			LTB2			LTB3			LTOE			LD5M			PE03			PE02			RPSI			LPSI			T10			LHEE			C7			RHEE			RBAK			PE01			
		X1	Y1	Z1	X2	Y2	Z2	X3	Y3	Z3	X4	Y4	Z4	X5	Y5	Z5	X6	Y6	Z6	X7	Y7	Z7	X8	Y8	Z8	X9	Y9	Z9	X10	Y10	Z10	X11	Y11	Z11	X12	Y12	Z12	X13	Y13	Z13	X14	Y14	Z14	X15	Y15	Z15	X16	Y16	Z16	X17	Y17	Z17	X18	Y18	Z18	X19	Y19	Z19	X20	Y20	Z20	X21	Y21	Z21	X22	Y22	Z22	X23	Y23	Z23	X24	Y24	Z24	X25	Y25	Z25	X26	Y26	Z26	X27	Y27	Z27	X28	Y28	Z28	X29	Y29	Z29	X30	Y30	Z30	

65	0.32	3.042326688766481	1415.341918945313	196.6748352050782	61.01942443847659	1224.198486328125	220.2320709228517	20.99771308898926	993.403686523438	360.6148071289064	48.74292755126956	1016.312561035157	90.21662139892581	-60.62444686889651	729.614440917969	390.437438964844	-120.6487579345704	718.3779907226565	379.8413085937501	-109.3357162475587	670.2352294921877	369.8966369628907	-238.7817687988282	368.4301147460939	332.2369079589845	-301.1063842773439	368.1317443847657	329.0015563964845	-299.6948547363282	317.8003845214845	322.2868652343751	-492.8462524414065	52.51375961303714	297.8964843750001	-451.961853027344	37.36132431030275	254.5671997070314	43.89212036132814	711.647399902344	50.01626205444339	28.90994071960451	665.8059082031252	63.85516738891604	88.2768478393555	649.014099121094	67.95143890380862	108.6513977050782	355.019012451172	100.0359420776368	83.09545898437503	313.4154357910157	111.6320343017579	137.4473724365235	283.0717773437501	113.7312774658204	296.6390075683595	34.84310913085939	192.7136383056642	257.6212463378907	17.92368698120118	144.3585968017579	-138.3662414550782	1041.30810546875	189.9920501708985	-137.8239288330079	1037.568481445313	240.9261016845704	-133.3529510498047	1048.099243164063	265.477752685547	-131.0771636962891	1055.814819335938	165.2760162353516	-168.572738647461	1239.870849609375	203.3064117431642	87.20733642578128	32.70211410522462	193.4807891845704	-119.6380615234376	1499.509887695313	177.1353759765626	-542.851745605469	209.2468109130861	242.5161743164064	-142.0873565673829	1425.57958984375	355.3902587890626	-125.0451431274415	1099.1591796875	219.1205291748048	
66	0.325	10.03504180908203	1416.184204101563	196.4898376464845	68.04449462890628	1225.027954101563	220.1568145751954	28.11302185058595	993.6074218750005	360.0122070312501	55.17217636108401	1017.74609375	89.63262176513675	-50.58755111694339	728.9510498046877	389.9342956542971	-110.4048767089844	716.8208618164065	379.2200622558595	-98.37367248535162	668.7265625000002	369.606170654297	-225.9592590332032	367.7347717285157	332.9956665039064	-288.2571411132814	368.2530822753907	330.2220458984376	-287.6066284179689	318.0004882812501	323.1241760253907	-486.4974365234377	56.41354751586917	298.8132934570314	-447.0901489257815	39.4506072998047	255.4716644287111	50.21254348754886	712.6817016601565	49.19859695434573	34.83765411376955	666.9022216796877	62.77711105346683	94.07291412353518	649.7520141601565	67.49880218505862	110.8327941894532	355.2789611816407	99.83593750000006	84.95705413818362	313.8633422851564	111.5514373779297	139.0805969238282	283.1081542968751	113.5262069702149	296.748992919922	34.80643463134767	192.6990356445314	257.5440368652345	17.97147941589356	144.1736450195313	-131.7152099609376	1041.967407226563	190.3560485839844	-131.0301818847657	1038.094116210938	241.270233154297	-126.4697418212891	1048.531616210938	265.8519592285157	-124.5203399658204	1056.651245117188	165.6916961669922	-161.4868164062501	1240.695922851563	203.2021636962892	87.15325927734378	32.68809127807619	193.5309600830079	-112.6322937011719	1500.339233398438	176.8634948730469	-532.425720214844	214.8040161132814	244.7677764892579	-135.1567077636719	1426.51220703125	355.0946350097657	-118.3461303710938	1099.76611328125	219.5938720703126	
67	0.33	16.9785442352295	1417.023803710938	196.3254699707032	74.98838806152347	1225.837646484375	220.0927276611329	35.11643218994142	993.8687133789067	359.441131591797	61.54693984985354	1019.118286132813	89.04937744140628	-40.60507202148439	728.3829345703127	389.4620666503909	-100.1905136108399	715.3326416015627	378.5859985351564	-87.41094207763675	667.3098144531252	369.3064880371095	-212.9081573486329	367.0919799804689	333.7115478515626	-275.1658325195314	368.3944091796876	331.4461059570314	-275.2562561035157	318.2431945800782	323.9021911621095	-479.5475158691409	60.45864868164065	299.8624572753907	-441.432067871094	41.72180557250978	256.5995483398439	56.16151046752933	713.5750732421877	48.47243499755862	40.31966400146486	667.882507324219	61.82073974609378	99.36669158935553	650.274353027344	67.13008880615237	112.7866744995118	355.4602355957032	99.64002990722662	86.63404083251956	314.2337341308595	111.5193328857422	140.5319519042969	283.0848999023439	113.2821197509766	296.8573608398439	34.76395416259767	192.6506805419923	257.4653320312501	17.98251533508301	143.9955291748047	-125.1406707763672	1042.615966796875	190.6737518310547	-124.3225326538087	1038.6220703125	241.5698089599611	-119.6790771484376	1048.967895507813	266.1736145019532	-118.032211303711	1057.46923828125	166.0615539550782	-154.4808502197266	1241.546264648438	203.0843048095704	87.09642028808597	32.67424392700197	193.5892791748048	-105.661605834961	1501.190185546875	176.6077575683594	-521.6942138671877	220.2275848388673	246.8437042236329	-128.2774353027344	1427.450439453125	354.8135681152345	-111.718864440918	1100.368530273438	220.0137786865236	
68	0.335	23.87123489379884	1417.859741210938	196.1809539794923	81.85115051269534	1226.627563476563	220.0377807617189	42.0121192932129	994.1906738281255	358.9046630859376	67.87082672119143	1020.423767089844	88.472282409668	-30.69054222106935	727.9224853515627	389.0254211425784	-90.01908111572268	713.932556152344	377.9414672851564	-76.46682739257815	666.0076904296877	368.997772216797	-199.6513519287111	366.5235900878907	334.3837280273439	-261.8574829101564	368.5760192871095	332.6624145507814	-262.6652832031251	318.5452270507814	324.622039794922	-471.9822387695315	64.6152267456055	301.0481567382814	-434.958923339844	44.14957809448244	257.9590148925782	61.70548248291018	714.3360595703127	47.84742736816408	45.33197021484376	668.7530517578127	60.99783325195315	104.1399307250977	650.600280761719	66.83757781982425	114.5428085327149	355.5725097656251	99.44340515136724	88.14925384521487	314.5370178222657	111.5234146118165	141.8230743408204	283.0088806152345	113.0036544799805	296.9680175781251	34.70920944213869	192.5811920166017	257.3916015625001	17.95946884155274	143.8259887695313	-118.639015197754	1043.257080078125	190.9403533935547	-117.6966552734376	1039.154541015625	241.8206176757814	-112.9768066406251	1049.41064453125	266.4384155273439	-111.6082229614258	1058.270874023438	166.3800506591797	-147.5545043945313	1242.419311523438	202.9522552490236	87.04123687744143	32.66453170776369	193.6521148681642	-98.72769927978521	1502.060791015625	176.368392944336	-510.6765441894534	225.4801788330079	248.7010192871095	-121.4510650634766	1428.391235351563	354.5467224121095	-105.1585540771485	1100.968872070313	220.3766021728517	
